<?xml version="1.0" encoding="utf-8"?>
<!-- Generator: Adobe Illustrator 26.0.1, SVG Export Plug-In . SVG Version: 6.00 Build 0)  -->
<svg version="1.1" id="Capa_1" xmlns="http://www.w3.org/2000/svg" xmlns:xlink="http://www.w3.org/1999/xlink" x="0px" y="0px"
	 viewBox="0 0 1024 250" style="enable-background:new 0 0 1024 250;" xml:space="preserve">
<style type="text/css">
	.st0{fill:#2E2E92;}
	.st1{font-family:'ThryomanesNormal';}
	.st2{font-size:36.3904px;}
</style>
<g>
	<g>
		<path class="st0" d="M109.22,202.82c12.35-16.92,23.81-33.3,32.91-52.23c10.32-21.47,12.33-43.88,19.21-66.48
			c6.09-20,28.14-61.73,61.16-66.02c0.72-0.09,1.45-0.14,2.2-0.14l-0.01-0.01l-5.13-2.48C127.19,53.89,150.51,142.32,109.22,202.82z
			"/>
		<path class="st0" d="M49.75,220.42c12.62-16.87,28.87-71.14,35.18-91.34c7.06-22.58,14.03-50.13,23.22-72.07
			c4.63-11.07,13.88-32.66,34.13-45.29c23.38-14.58,52.85-11.6,65.86-6.91c0.68,0.25-5.02-0.82-11.38-1.39
			c-5.2-0.47-13.24-0.63-18.3,0.1c-7.8,1.13-17.57,4.74-23.24,7.32c-8.53,3.88-17.95,9.62-31.04,29.7
			C94.27,86.42,91.21,165,49.75,220.42z"/>
		<path class="st0" d="M210.05,125.55c2.45-12.99,7.8-24.72,21.07-33.04c-17.21-18.45-2.89-33.31-2.49-44.58
			c-9.28,5.96-13.41,14.15-15.47,23.22c2.28,9.4,7.64,11.68,10.1,20.68c-15.52,8.25-11.93,24.76-24.36,34.34
			c-7.37,2.28-19.01-2.04-23.28,3.54C187.49,131.45,196.4,135.18,210.05,125.55z"/>
		<path class="st0" d="M240.92,107.62c-2.48,18.87-12.74,34.38-12.62,54.37c-10.79-4.39-17.72-17.73-27.13-25.32
			c9.24,23.7,28.34,24.61,40.85,40.76c-11.91-28.26-3.26-47.64,10.36-64.87c21.24,25.23,8.61,61.23,11.88,82.63
			c14.48-23.08,13.37-68.24-11.85-92.14C246.54,105.8,247,107.81,240.92,107.62z"/>
		<path class="st0" d="M280.29,202.13c-6.64-2.09-1.98-10.74-6.51-16.41c-3.58,8.42-3.72,23.91-5.02,33.32c0,0,5.17-5.56,6.51-7.08
			C278.5,208.33,280.29,202.13,280.29,202.13z"/>
		<path class="st0" d="M3.38,233.47c15.11,2.59,29.57,4.76,44.93,4.55c17.42-0.23,32.76-6.21,49.8-9.06
			c15.08-2.53,49.6-1.67,63.16,18.57c0.3,0.44,0.56,0.91,0.81,1.39l0-0.01l-0.05-4.17C106.79,196.75,56.46,240.83,3.38,233.47z"/>
		<path class="st0" d="M324.8,228.46c-15.01,3.07-29.4,5.71-44.76,6c-17.42,0.33-32.95-5.14-50.07-7.44
			c-15.16-2.04-49.63-0.06-62.53,20.6c-0.28,0.45-0.53,0.93-0.77,1.42l0-0.01l-0.09-4.17C220.25,195.1,271.99,237.52,324.8,228.46z"
			/>
	</g>
	<path class="st0" d="M446.87,169.96c1.09-0.57,1.81-0.62,2.16-0.14c0.35,0.47,0.27,1.18-0.25,2.13c-1.75,3.02-4.19,6.07-7.31,9.11
		c-3.12,3.05-6.84,5.79-11.17,8.23c-4.33,2.44-9.2,4.42-14.61,5.96c-5.42,1.54-11.29,2.31-17.63,2.31c-6.15,0-11.92-0.69-17.31-2.05
		c-5.39-1.37-10.52-3.08-15.4-5.11c-4.87-2.03-9.49-4.23-13.87-6.56c-4.38-2.34-8.58-4.48-12.63-6.42
		c-4.04-1.94-7.97-3.49-11.78-4.65c-3.81-1.16-7.58-1.57-11.32-1.24c-0.8,0.09-1.31-0.07-1.52-0.5c-0.21-0.42-0.01-0.89,0.6-1.42
		c1.8-1.51,4.22-2.82,7.27-3.9c3.05-1.09,6.49-1.63,10.32-1.63c2.37,0,4.73,0.07,7.1,0.21c0.76,0.05,1.14-0.26,1.14-0.92V82.2
		c0-2.17-0.47-3.96-1.42-5.35c-0.95-1.4-2.05-2.48-3.3-3.27c-1.26-0.78-2.5-1.34-3.73-1.67c-1.23-0.33-2.13-0.54-2.7-0.64
		c-0.43-0.05-0.74-0.2-0.96-0.46c-0.21-0.26-0.31-0.52-0.28-0.78c0.02-0.26,0.15-0.5,0.39-0.71c0.24-0.21,0.59-0.32,1.06-0.32h45.26
		c0.47,0,0.83,0.11,1.06,0.32c0.24,0.21,0.37,0.45,0.39,0.71c0.02,0.26-0.07,0.52-0.29,0.78c-0.21,0.26-0.53,0.41-0.96,0.46
		c-0.57,0.09-1.47,0.31-2.7,0.64c-1.23,0.33-2.47,0.88-3.72,1.67c-1.26,0.78-2.35,1.87-3.3,3.27c-0.95,1.4-1.42,3.18-1.42,5.35
		v82.23c0,1.37,0.27,2.34,0.82,2.91c0.54,0.57,1.31,1.01,2.31,1.35c2.27,0.71,5.27,1.52,9.01,2.44c3.73,0.93,7.81,1.81,12.24,2.66
		c4.42,0.85,8.98,1.56,13.66,2.13c4.68,0.57,9.06,0.85,13.13,0.85c3.4,0,6.55-0.14,9.44-0.43s5.61-0.71,8.16-1.27
		c2.55-0.57,4.98-1.28,7.27-2.13C442.39,172.08,444.65,171.1,446.87,169.96z"/>
	<path class="st0" d="M395.99,150.36c0,1.35,0.27,2.44,0.81,3.28c0.54,0.83,1.16,1.47,1.85,1.93c0.69,0.46,1.37,0.78,2.03,0.96
		c0.66,0.19,1.12,0.3,1.4,0.33c0.27,0.06,0.46,0.18,0.58,0.33c0.12,0.15,0.16,0.31,0.13,0.49c-0.03,0.16-0.13,0.32-0.28,0.45
		c-0.15,0.14-0.36,0.2-0.63,0.2H376.4c-0.27,0-0.48-0.06-0.63-0.2c-0.15-0.13-0.25-0.29-0.28-0.45c-0.03-0.17,0.01-0.33,0.13-0.49
		c0.12-0.15,0.31-0.26,0.58-0.33c0.27-0.04,0.74-0.14,1.4-0.33c0.66-0.18,1.34-0.5,2.03-0.96c0.69-0.45,1.31-1.1,1.85-1.93
		c0.54-0.83,0.81-1.92,0.81-3.28v-28.21c0-0.44-0.2-0.71-0.61-0.81c-0.07,0-0.31-0.05-0.74-0.15c-0.42-0.1-0.91-0.22-1.45-0.36
		c-0.54-0.14-1.04-0.25-1.5-0.36c-0.46-0.1-0.74-0.17-0.84-0.2c-0.44-0.1-0.67-0.33-0.68-0.69c-0.02-0.35,0.23-0.6,0.74-0.73
		c1.32-0.31,2.75-0.72,4.29-1.24c1.54-0.52,3.09-1.11,4.64-1.78c1.56-0.66,3.06-1.37,4.52-2.13c1.46-0.76,2.76-1.53,3.91-2.31
		c0.3-0.2,0.62-0.29,0.94-0.25c0.32,0.03,0.48,0.29,0.48,0.76V150.36z M396.4,93.23c-0.41-0.98-0.97-1.84-1.7-2.56
		c-0.73-0.73-1.59-1.3-2.59-1.73c-1-0.42-2.11-0.63-3.32-0.63c-1.18,0-2.3,0.22-3.35,0.66c-1.05,0.44-1.95,1.03-2.71,1.78
		c-0.76,0.74-1.36,1.62-1.8,2.61c-0.44,1-0.66,2.05-0.66,3.17c0,1.11,0.2,2.17,0.61,3.15c0.41,0.98,0.97,1.83,1.7,2.54
		c0.73,0.71,1.59,1.28,2.59,1.7c1,0.43,2.09,0.64,3.27,0.64c1.22,0,2.34-0.22,3.37-0.66c1.03-0.44,1.94-1.02,2.71-1.75
		c0.78-0.72,1.39-1.59,1.83-2.59c0.44-1,0.66-2.06,0.66-3.17C397,95.25,396.8,94.21,396.4,93.23z"/>
	<path class="st0" d="M439.68,111.39c2.71,0,5.07,0.36,7.1,1.07c2.03,0.71,3.78,1.67,5.25,2.89c1.47,1.22,2.69,2.6,3.65,4.16
		c0.96,1.56,1.73,3.2,2.28,4.92c0.56,1.73,0.95,3.45,1.17,5.18c0.22,1.73,0.33,3.35,0.33,4.87c0,3.82-0.47,7.27-1.4,10.35
		c-0.93,3.08-2.33,5.72-4.21,7.92c-1.88,2.2-4.24,3.89-7.08,5.08c-2.84,1.18-6.16,1.78-9.95,1.78c-2.13,0-4.01-0.14-5.63-0.41
		c-1.62-0.27-3.1-0.66-4.44-1.17c-1.34-0.51-2.57-1.14-3.7-1.9c-1.13-0.76-2.28-1.65-3.42-2.66c-0.14-0.1-0.26-0.17-0.38-0.2
		c-0.12-0.04-0.26,0.03-0.43,0.2c-0.37,0.3-0.89,0.75-1.55,1.34c-0.66,0.59-1.36,1.25-2.11,1.95c-0.74,0.71-1.48,1.42-2.21,2.14
		s-1.31,1.32-1.75,1.83c-0.27,0.3-0.56,0.4-0.86,0.28c-0.3-0.12-0.46-0.4-0.46-0.84v-33.29c0-2.77,0-5.52,0-8.25
		c0-2.72,0-5.32,0-7.79c0-2.47,0.01-4.75,0.03-6.85c0.02-2.1,0.03-3.92,0.03-5.48c0-1.56,0-3.21,0-4.97c0-0.44-0.2-0.71-0.61-0.81
		c-0.07,0-0.31-0.06-0.74-0.18c-0.42-0.12-0.91-0.24-1.45-0.36c-0.54-0.12-1.04-0.24-1.5-0.36c-0.46-0.12-0.74-0.18-0.84-0.18
		c-0.44-0.1-0.67-0.34-0.68-0.71c-0.02-0.37,0.23-0.61,0.74-0.71c1.32-0.31,2.75-0.72,4.29-1.24c1.54-0.52,3.09-1.11,4.64-1.78
		c1.56-0.66,3.06-1.37,4.52-2.13c1.45-0.76,2.76-1.53,3.91-2.31c0.31-0.2,0.62-0.29,0.94-0.25c0.32,0.03,0.48,0.29,0.48,0.76v35.17
		c0.07,0.14,0.17,0.22,0.3,0.25c0.14,0.03,0.25-0.03,0.36-0.2c0.3-0.37,0.81-0.95,1.52-1.75c0.71-0.79,1.68-1.59,2.92-2.38
		c1.23-0.79,2.76-1.49,4.57-2.08C435.12,111.69,437.24,111.39,439.68,111.39z M444.75,136.86c0-0.77-0.01-1.79-0.03-3.04
		c-0.02-1.25-0.12-2.61-0.31-4.06s-0.48-2.93-0.89-4.42c-0.41-1.49-1-2.82-1.78-4.01c-0.78-1.18-1.78-2.15-2.99-2.92
		c-1.22-0.76-2.72-1.14-4.52-1.14c-2.3,0-4.14,0.43-5.53,1.27c-1.39,0.85-2.45,1.88-3.2,3.1c-0.74,1.22-1.23,2.51-1.47,3.88
		c-0.24,1.37-0.35,2.58-0.35,3.63v13.7c0,1.28,0.14,2.72,0.43,4.31c0.29,1.59,0.8,3.09,1.55,4.52c0.74,1.42,1.76,2.61,3.04,3.58
		c1.29,0.96,2.93,1.44,4.92,1.44c2,0,3.7-0.5,5.1-1.52c1.4-1.01,2.55-2.41,3.45-4.19c0.9-1.78,1.55-3.87,1.95-6.29
		C444.55,142.29,444.75,139.67,444.75,136.86z"/>
	<path class="st0" d="M494.18,111.39c1.42,0,2.62,0.18,3.6,0.53c0.98,0.36,1.78,0.83,2.39,1.42c0.61,0.59,1.05,1.28,1.32,2.08
		c0.27,0.8,0.4,1.63,0.4,2.51c0,1.62-0.51,2.89-1.55,3.8c-1.03,0.91-2.41,1.37-4.14,1.37c-1.32,0-2.35-0.24-3.1-0.71
		c-0.74-0.48-1.38-0.99-1.9-1.55c-0.53-0.56-1.01-1.07-1.45-1.55c-0.44-0.47-0.98-0.71-1.62-0.71c-0.58,0-1.19,0.2-1.85,0.59
		c-0.66,0.39-1.27,1.12-1.83,2.2c-0.56,1.08-1.02,2.57-1.4,4.47c-0.37,1.9-0.56,4.35-0.56,7.36v17.56c0,1.35,0.23,2.42,0.69,3.19
		c0.46,0.78,0.98,1.37,1.57,1.78c0.59,0.41,1.17,0.69,1.75,0.84c0.57,0.15,1,0.25,1.27,0.28c0.27,0.06,0.47,0.18,0.58,0.33
		c0.12,0.15,0.16,0.31,0.13,0.49c-0.03,0.16-0.13,0.32-0.28,0.45c-0.15,0.14-0.36,0.2-0.63,0.2h-5.08h-0.46h-12.79h-0.46h-5.07
		c-0.27,0-0.48-0.06-0.63-0.2c-0.15-0.13-0.25-0.29-0.28-0.45c-0.03-0.17,0.01-0.33,0.13-0.49c0.12-0.15,0.31-0.26,0.58-0.33
		c0.27-0.04,0.69-0.13,1.27-0.28c0.57-0.15,1.16-0.43,1.75-0.84c0.59-0.4,1.12-1,1.57-1.78c0.46-0.77,0.68-1.84,0.68-3.19v-28.62
		c0-0.44-0.2-0.71-0.61-0.81c-0.07,0-0.31-0.05-0.74-0.15c-0.42-0.1-0.91-0.22-1.45-0.36c-0.54-0.14-1.04-0.25-1.5-0.36
		c-0.46-0.1-0.74-0.17-0.84-0.2c-0.44-0.1-0.67-0.33-0.68-0.69c-0.02-0.35,0.23-0.6,0.74-0.73c1.32-0.31,2.75-0.72,4.29-1.24
		c1.54-0.52,3.09-1.11,4.64-1.78c1.56-0.66,3.06-1.37,4.52-2.13c1.46-0.76,2.76-1.53,3.91-2.31c0.3-0.2,0.62-0.29,0.94-0.25
		c0.32,0.03,0.48,0.29,0.48,0.76v7.26c1.18-2.61,2.79-4.55,4.82-5.84C489.36,112.03,491.64,111.39,494.18,111.39z"/>
	<path class="st0" d="M517.27,131.44c-0.54,0-0.81,0.29-0.81,0.86c0,3.45,0.31,6.41,0.91,8.88c0.61,2.47,1.5,4.49,2.66,6.07
		c1.17,1.57,2.62,2.73,4.36,3.48c1.74,0.74,3.76,1.11,6.06,1.11c1.76,0,3.32-0.18,4.69-0.56c1.37-0.37,2.56-0.8,3.58-1.29
		c1.01-0.49,1.84-0.96,2.49-1.4c0.64-0.43,1.12-0.72,1.42-0.86c0.47-0.2,0.85-0.16,1.12,0.13c0.27,0.28,0.27,0.72,0,1.29
		c-0.1,0.2-0.33,0.6-0.68,1.19c-0.36,0.59-0.87,1.28-1.55,2.06c-0.68,0.77-1.52,1.59-2.54,2.43c-1.02,0.85-2.22,1.63-3.63,2.34
		c-1.4,0.71-3.01,1.29-4.82,1.75c-1.81,0.45-3.83,0.69-6.06,0.69c-3.38,0-6.44-0.54-9.18-1.6s-5.08-2.61-7.03-4.64
		c-1.95-2.03-3.45-4.5-4.52-7.41c-1.06-2.9-1.6-6.18-1.6-9.84c0-3.99,0.66-7.53,1.98-10.6c1.32-3.08,3.05-5.66,5.18-7.74
		c2.13-2.08,4.55-3.66,7.26-4.74c2.71-1.08,5.46-1.62,8.27-1.62c2.64,0,4.96,0.37,6.98,1.09c2.01,0.73,3.76,1.67,5.23,2.84
		c1.47,1.17,2.69,2.47,3.65,3.91c0.97,1.44,1.74,2.87,2.34,4.29c0.59,1.42,1.01,2.76,1.24,4.01c0.24,1.25,0.36,2.25,0.36,2.99
		c0,0.34-0.11,0.58-0.33,0.71c-0.22,0.14-0.52,0.2-0.89,0.2H517.27z M516.71,128.08c-0.07,0.44,0.14,0.66,0.61,0.66
		c0.1,0,0.44-0.01,1.02-0.03c0.57-0.02,1.28-0.04,2.11-0.08c0.83-0.03,1.72-0.07,2.66-0.1c0.95-0.03,1.85-0.07,2.71-0.1
		c0.86-0.03,1.61-0.06,2.23-0.08c0.63-0.02,1.02-0.04,1.19-0.08c0.54-0.03,1.11-0.27,1.7-0.71c0.59-0.44,0.89-1.2,0.89-2.28
		c0-0.98-0.14-2.11-0.41-3.4c-0.27-1.28-0.7-2.5-1.29-3.66c-0.59-1.15-1.34-2.12-2.26-2.92c-0.91-0.79-2.03-1.19-3.35-1.19
		c-1.05,0-1.96,0.28-2.74,0.84c-0.78,0.56-1.45,1.29-2,2.18c-0.56,0.9-1.02,1.89-1.4,2.97c-0.37,1.08-0.68,2.14-0.91,3.17
		c-0.24,1.03-0.42,1.98-0.53,2.84C516.82,127,516.74,127.65,516.71,128.08z"/>
	<path class="st0" d="M579.68,111.39c1.42,0,2.62,0.18,3.6,0.53c0.98,0.36,1.78,0.83,2.39,1.42c0.6,0.59,1.05,1.28,1.32,2.08
		c0.27,0.8,0.41,1.63,0.41,2.51c0,1.62-0.51,2.89-1.55,3.8c-1.03,0.91-2.41,1.37-4.14,1.37c-1.32,0-2.35-0.24-3.09-0.71
		c-0.75-0.48-1.38-0.99-1.9-1.55c-0.53-0.56-1.01-1.07-1.45-1.55c-0.44-0.47-0.98-0.71-1.62-0.71c-0.57,0-1.19,0.2-1.85,0.59
		c-0.66,0.39-1.27,1.12-1.83,2.2c-0.56,1.08-1.02,2.57-1.4,4.47c-0.37,1.9-0.56,4.35-0.56,7.36v17.56c0,1.35,0.23,2.42,0.69,3.19
		c0.45,0.78,0.98,1.37,1.57,1.78c0.59,0.41,1.17,0.69,1.75,0.84s1,0.25,1.27,0.28c0.27,0.06,0.47,0.18,0.58,0.33
		c0.12,0.15,0.16,0.31,0.13,0.49c-0.04,0.16-0.13,0.32-0.28,0.45c-0.15,0.14-0.36,0.2-0.63,0.2h-5.08h-0.46h-12.79h-0.46h-5.08
		c-0.27,0-0.48-0.06-0.63-0.2c-0.15-0.13-0.25-0.29-0.28-0.45c-0.03-0.17,0.01-0.33,0.13-0.49c0.12-0.15,0.31-0.26,0.58-0.33
		c0.27-0.04,0.69-0.13,1.27-0.28c0.57-0.15,1.16-0.43,1.75-0.84c0.59-0.4,1.12-1,1.57-1.78c0.46-0.77,0.68-1.84,0.68-3.19v-28.62
		c0-0.44-0.2-0.71-0.61-0.81c-0.07,0-0.31-0.05-0.74-0.15c-0.42-0.1-0.91-0.22-1.45-0.36c-0.54-0.14-1.04-0.25-1.5-0.36
		c-0.46-0.1-0.74-0.17-0.84-0.2c-0.44-0.1-0.67-0.33-0.68-0.69c-0.02-0.35,0.23-0.6,0.74-0.73c1.32-0.31,2.75-0.72,4.29-1.24
		c1.54-0.52,3.09-1.11,4.64-1.78c1.56-0.66,3.06-1.37,4.52-2.13c1.45-0.76,2.76-1.53,3.91-2.31c0.31-0.2,0.61-0.29,0.94-0.25
		c0.32,0.03,0.48,0.29,0.48,0.76v7.26c1.18-2.61,2.79-4.55,4.82-5.84C574.86,112.03,577.14,111.39,579.68,111.39z"/>
	<path class="st0" d="M608.55,150.36c0,1.35,0.27,2.44,0.81,3.28c0.54,0.83,1.16,1.47,1.85,1.93c0.69,0.46,1.37,0.78,2.03,0.96
		c0.66,0.19,1.12,0.3,1.4,0.33c0.27,0.06,0.47,0.18,0.58,0.33c0.12,0.15,0.16,0.31,0.13,0.49c-0.04,0.16-0.13,0.32-0.28,0.45
		c-0.15,0.14-0.36,0.2-0.63,0.2h-25.48c-0.27,0-0.48-0.06-0.63-0.2c-0.15-0.13-0.25-0.29-0.28-0.45c-0.03-0.17,0.01-0.33,0.13-0.49
		c0.12-0.15,0.31-0.26,0.58-0.33c0.27-0.04,0.74-0.14,1.4-0.33c0.66-0.18,1.34-0.5,2.03-0.96c0.69-0.45,1.31-1.1,1.85-1.93
		c0.54-0.83,0.81-1.92,0.81-3.28v-28.21c0-0.44-0.2-0.71-0.61-0.81c-0.07,0-0.31-0.05-0.74-0.15c-0.42-0.1-0.9-0.22-1.44-0.36
		c-0.54-0.14-1.04-0.25-1.5-0.36c-0.46-0.1-0.74-0.17-0.84-0.2c-0.44-0.1-0.67-0.33-0.69-0.69c-0.02-0.35,0.23-0.6,0.74-0.73
		c1.32-0.31,2.75-0.72,4.29-1.24c1.54-0.52,3.09-1.11,4.64-1.78c1.56-0.66,3.06-1.37,4.52-2.13c1.46-0.76,2.76-1.53,3.91-2.31
		c0.31-0.2,0.62-0.29,0.94-0.25c0.32,0.03,0.48,0.29,0.48,0.76V150.36z M595.18,108.86c0.19,0.2,0.47,0.22,0.84,0.05
		c1.35-0.61,2.91-1.4,4.67-2.36c1.76-0.96,3.49-2.03,5.2-3.2c1.71-1.17,3.28-2.38,4.72-3.65c1.44-1.27,2.54-2.49,3.32-3.68
		c0.34-0.54,0.62-1.17,0.84-1.88c0.22-0.71,0.32-1.4,0.31-2.06c-0.02-0.66-0.18-1.28-0.48-1.85c-0.31-0.58-0.83-1.01-1.57-1.32
		c-0.67-0.31-1.32-0.43-1.93-0.38c-0.61,0.05-1.19,0.21-1.75,0.48c-0.56,0.27-1.07,0.64-1.55,1.09c-0.47,0.46-0.91,0.94-1.32,1.45
		c-0.07,0.07-0.36,0.48-0.86,1.24c-0.51,0.76-1.14,1.7-1.9,2.82c-0.76,1.11-1.59,2.33-2.49,3.65c-0.9,1.32-1.75,2.58-2.56,3.78
		c-0.81,1.2-1.53,2.26-2.15,3.17c-0.63,0.91-1.04,1.52-1.25,1.83C595.02,108.38,595,108.65,595.18,108.86z"/>
	<path class="st0" d="M668.23,153.66c0.48-0.1,0.85-0.01,1.12,0.28c0.27,0.29,0.29,0.67,0.05,1.15c-0.2,0.37-0.53,0.81-0.99,1.32
		c-0.46,0.51-1.07,0.98-1.83,1.42c-0.76,0.44-1.69,0.81-2.79,1.11c-1.1,0.3-2.39,0.45-3.89,0.45c-2.06,0-3.8-0.41-5.2-1.24
		c-1.4-0.83-2.38-1.78-2.92-2.87c-0.13-0.27-0.33-0.39-0.58-0.36c-0.26,0.04-0.47,0.14-0.64,0.31c-0.1,0.1-0.42,0.38-0.94,0.84
		c-0.53,0.45-1.27,0.94-2.23,1.47c-0.97,0.53-2.13,1-3.48,1.42c-1.35,0.42-2.91,0.64-4.67,0.64c-3.01,0-5.54-0.43-7.58-1.27
		c-2.05-0.84-3.7-1.93-4.98-3.27c-1.27-1.34-2.18-2.85-2.74-4.52c-0.56-1.68-0.84-3.34-0.84-5c0-2.67,0.76-5.01,2.26-7
		c1.51-2,3.46-3.48,5.86-4.47c1.29-0.5,2.63-0.87,4.04-1.09c1.4-0.22,2.8-0.45,4.19-0.69c1.39-0.23,2.75-0.53,4.08-0.89
		c1.34-0.36,2.59-0.94,3.78-1.75c1.25-0.84,2.12-1.93,2.61-3.25c0.49-1.32,0.74-2.72,0.74-4.21c0-1.08-0.14-2.12-0.43-3.12
		c-0.29-1-0.69-1.87-1.22-2.61c-0.52-0.75-1.13-1.34-1.83-1.78c-0.69-0.44-1.45-0.66-2.25-0.66c-1.46,0-2.52,0.37-3.2,1.12
		c-0.68,0.74-1.21,1.64-1.6,2.69c-0.39,1.05-0.75,2.14-1.09,3.27c-0.34,1.13-0.88,2.11-1.62,2.92c-0.61,0.65-1.39,1.13-2.36,1.45
		c-0.96,0.32-1.89,0.48-2.77,0.48c-0.91,0-1.73-0.15-2.43-0.46c-0.71-0.31-1.32-0.72-1.83-1.24c-0.51-0.53-0.89-1.13-1.14-1.83
		c-0.26-0.69-0.38-1.43-0.38-2.21c0-1.05,0.25-2.1,0.76-3.15c0.51-1.05,1.41-2,2.71-2.84c1.3-0.85,3.05-1.53,5.25-2.06
		c2.2-0.52,4.99-0.79,8.37-0.79c3.75,0,6.96,0.38,9.62,1.14c2.65,0.76,4.82,1.87,6.49,3.32c1.68,1.45,2.89,3.26,3.65,5.4
		c0.76,2.15,1.14,4.59,1.14,7.33c0,3.28-0.1,6.36-0.31,9.23c-0.2,2.88-0.35,5.42-0.43,7.64c-0.09,2.22-0.04,4.04,0.13,5.48
		c0.17,1.44,0.64,2.32,1.42,2.66c0.34,0.17,0.76,0.25,1.27,0.23C667.11,153.82,667.65,153.76,668.23,153.66z M650.62,130.98
		c0-0.2-0.09-0.34-0.25-0.41c-0.17-0.07-0.32-0.02-0.46,0.15c-0.27,0.31-0.52,0.59-0.73,0.86c-0.22,0.27-0.52,0.59-0.89,0.96
		c-0.65,0.68-1.3,1.32-1.98,1.91c-0.67,0.59-1.35,1.19-2.03,1.8c-0.68,0.54-1.34,1.08-2,1.62c-0.66,0.54-1.28,1.13-1.85,1.78
		c-0.88,1.02-1.53,2.13-1.95,3.33c-0.42,1.2-0.63,2.48-0.63,3.83c0,0.91,0.13,1.84,0.4,2.76c0.27,0.93,0.69,1.76,1.24,2.49
		c0.56,0.73,1.27,1.32,2.13,1.78c0.86,0.46,1.9,0.69,3.12,0.69c1.22,0,2.21-0.25,2.97-0.76c0.76-0.5,1.35-1.11,1.78-1.83
		c0.42-0.71,0.72-1.43,0.89-2.15c0.17-0.73,0.25-1.3,0.25-1.7V130.98z"/>
	<path class="st0" d="M767.35,85.36v11.95c0,0.55-0.22,0.85-0.66,0.9c-0.44,0.06-0.8-0.17-1.1-0.68c-0.22-0.48-0.66-1.26-1.32-2.36
		c-0.66-1.1-1.57-2.22-2.74-3.37c-1.17-1.15-2.63-2.16-4.39-3.04c-1.75-0.88-3.85-1.32-6.3-1.32c-1.72,0-3.29,0.15-4.71,0.44
		c-1.42,0.29-2.64,0.76-3.64,1.4c-1.01,0.64-1.79,1.46-2.36,2.47c-0.57,1-0.85,2.22-0.85,3.65v23.96v-0.82
		c0,0.22,0.08,0.41,0.25,0.58c0.16,0.16,0.36,0.25,0.57,0.25h7.02c1.64,0,2.99-0.33,4.03-0.99c1.04-0.66,1.86-1.43,2.47-2.31
		c0.6-0.88,1.03-1.74,1.29-2.6c0.26-0.86,0.42-1.51,0.49-1.95c0.04-0.29,0.15-0.5,0.36-0.63c0.2-0.13,0.4-0.18,0.6-0.16
		c0.2,0.02,0.38,0.11,0.55,0.27c0.16,0.16,0.25,0.39,0.25,0.69v18.64c0,0.29-0.08,0.52-0.25,0.68c-0.16,0.16-0.35,0.26-0.55,0.27
		c-0.2,0.02-0.4-0.03-0.6-0.16c-0.2-0.13-0.32-0.34-0.36-0.63c-0.07-0.44-0.24-1.09-0.49-1.95c-0.26-0.86-0.68-1.73-1.29-2.6
		c-0.6-0.88-1.42-1.64-2.47-2.3c-1.04-0.66-2.38-0.99-4.03-0.99h-7.02c-0.22,0-0.41,0.09-0.57,0.25c-0.17,0.16-0.25,0.36-0.25,0.58
		v-0.83v25.49c0,1.72,0.37,3.11,1.1,4.17c0.73,1.06,1.58,1.9,2.55,2.52c0.97,0.62,1.93,1.05,2.88,1.29
		c0.95,0.24,1.64,0.39,2.08,0.47c0.33,0.07,0.58,0.2,0.74,0.38c0.16,0.18,0.24,0.37,0.22,0.57c-0.02,0.2-0.12,0.38-0.3,0.55
		c-0.18,0.16-0.46,0.25-0.82,0.25h-34.98c-0.37,0-0.64-0.08-0.82-0.25c-0.19-0.16-0.28-0.35-0.3-0.55c-0.02-0.2,0.05-0.39,0.22-0.57
		c0.17-0.18,0.41-0.32,0.74-0.38c0.44-0.08,1.13-0.23,2.08-0.47c0.95-0.24,1.91-0.67,2.88-1.29c0.97-0.62,1.82-1.46,2.55-2.52
		c0.73-1.06,1.1-2.45,1.1-4.17V94.52c0-1.68-0.37-3.06-1.1-4.14c-0.73-1.08-1.58-1.92-2.55-2.52c-0.97-0.6-1.93-1.03-2.88-1.29
		c-0.95-0.26-1.64-0.42-2.08-0.49c-0.33-0.03-0.58-0.15-0.74-0.36c-0.16-0.2-0.24-0.4-0.22-0.6c0.02-0.2,0.12-0.38,0.3-0.55
		c0.18-0.17,0.46-0.25,0.82-0.25h53.45C766.96,84.32,767.35,84.67,767.35,85.36z"/>
	<path class="st0" d="M815.77,153.94c0.27,0.29,0.29,0.67,0.05,1.15c-0.2,0.37-0.53,0.81-0.99,1.32c-0.46,0.51-1.06,0.98-1.83,1.42
		c-0.76,0.44-1.69,0.81-2.79,1.11c-1.1,0.3-2.39,0.45-3.88,0.45c-2.06,0-3.8-0.41-5.2-1.24c-1.4-0.83-2.38-1.78-2.92-2.87
		c-0.14-0.27-0.33-0.39-0.58-0.36c-0.26,0.04-0.47,0.14-0.64,0.31c-0.1,0.1-0.41,0.38-0.94,0.84c-0.52,0.45-1.27,0.94-2.23,1.47
		c-0.96,0.53-2.12,1-3.47,1.42c-1.35,0.42-2.91,0.64-4.67,0.64c-3.01,0-5.54-0.43-7.59-1.27c-2.05-0.84-3.7-1.93-4.97-3.27
		c-1.27-1.34-2.18-2.85-2.74-4.52c-0.56-1.68-0.84-3.34-0.84-5c0-2.67,0.75-5.01,2.26-7c1.51-2,3.46-3.48,5.86-4.47
		c1.28-0.5,2.63-0.87,4.03-1.09c1.4-0.22,2.8-0.45,4.19-0.69c1.39-0.23,2.75-0.53,4.08-0.89c1.34-0.36,2.59-0.94,3.78-1.75
		c1.25-0.84,2.12-1.93,2.61-3.25c0.49-1.32,0.74-2.72,0.74-4.21c0-1.08-0.14-2.12-0.43-3.12c-0.29-1-0.7-1.87-1.22-2.61
		c-0.53-0.75-1.13-1.34-1.83-1.78c-0.69-0.44-1.45-0.66-2.26-0.66c-1.46,0-2.52,0.37-3.2,1.12c-0.68,0.74-1.21,1.64-1.6,2.69
		c-0.39,1.05-0.75,2.14-1.09,3.27c-0.34,1.13-0.88,2.11-1.62,2.92c-0.61,0.65-1.4,1.13-2.36,1.45c-0.96,0.32-1.89,0.48-2.76,0.48
		c-0.91,0-1.73-0.15-2.44-0.46c-0.71-0.31-1.32-0.72-1.83-1.24c-0.51-0.53-0.89-1.13-1.14-1.83c-0.26-0.69-0.38-1.43-0.38-2.21
		c0-1.05,0.25-2.1,0.76-3.15c0.51-1.05,1.41-2,2.71-2.84c1.3-0.85,3.05-1.53,5.25-2.06c2.2-0.52,4.99-0.79,8.37-0.79
		c3.75,0,6.96,0.38,9.61,1.14c2.66,0.76,4.82,1.87,6.5,3.32c1.68,1.45,2.89,3.26,3.65,5.4c0.76,2.15,1.14,4.59,1.14,7.33
		c0,3.28-0.1,6.36-0.31,9.23c-0.2,2.88-0.35,5.42-0.43,7.64c-0.09,2.22-0.04,4.04,0.13,5.48c0.17,1.44,0.64,2.32,1.42,2.66
		c0.34,0.17,0.76,0.25,1.27,0.23c0.51-0.01,1.05-0.08,1.62-0.18C815.12,153.56,815.5,153.65,815.77,153.94z M797.04,130.98
		c0-0.2-0.08-0.34-0.25-0.41c-0.17-0.07-0.32-0.02-0.46,0.15c-0.27,0.31-0.52,0.59-0.74,0.86c-0.22,0.27-0.52,0.59-0.89,0.96
		c-0.64,0.68-1.3,1.32-1.98,1.91c-0.68,0.59-1.35,1.19-2.03,1.8c-0.68,0.54-1.34,1.08-2,1.62c-0.66,0.54-1.28,1.13-1.85,1.78
		c-0.88,1.02-1.53,2.13-1.96,3.33c-0.42,1.2-0.63,2.48-0.63,3.83c0,0.91,0.14,1.84,0.41,2.76c0.27,0.93,0.68,1.76,1.24,2.49
		c0.56,0.73,1.27,1.32,2.13,1.78c0.86,0.46,1.91,0.69,3.12,0.69c1.22,0,2.21-0.25,2.97-0.76c0.76-0.5,1.35-1.11,1.78-1.83
		c0.42-0.71,0.72-1.43,0.89-2.15c0.17-0.73,0.25-1.3,0.25-1.7V130.98z M788.36,108.91c0.17,0.2,0.44,0.22,0.81,0.05
		c1.35-0.61,2.91-1.4,4.67-2.36c1.76-0.96,3.49-2.03,5.2-3.2c1.71-1.17,3.29-2.38,4.75-3.65c1.45-1.27,2.55-2.49,3.3-3.68
		c0.34-0.54,0.63-1.17,0.86-1.88c0.24-0.71,0.35-1.4,0.33-2.06c-0.02-0.66-0.19-1.28-0.51-1.85s-0.83-1.01-1.55-1.32
		c-0.68-0.31-1.33-0.43-1.95-0.38c-0.63,0.05-1.22,0.21-1.78,0.48c-0.56,0.27-1.07,0.64-1.55,1.09c-0.47,0.46-0.9,0.94-1.27,1.45
		c-0.07,0.07-0.36,0.48-0.89,1.24c-0.52,0.76-1.17,1.7-1.93,2.82c-0.76,1.12-1.59,2.33-2.48,3.65c-0.9,1.32-1.75,2.58-2.56,3.78
		c-0.81,1.2-1.53,2.26-2.16,3.17c-0.63,0.91-1.04,1.52-1.24,1.83C788.21,108.43,788.19,108.7,788.36,108.91z"/>
	<path class="st0" d="M850.17,150.97c0.61-0.3,1.05-0.27,1.32,0.1c0.27,0.37,0.29,0.76,0.05,1.17c-0.61,1.08-1.38,2.08-2.31,2.97
		c-0.93,0.89-1.99,1.68-3.17,2.33c-1.18,0.66-2.48,1.17-3.88,1.52c-1.4,0.35-2.88,0.54-4.44,0.54c-1.69,0-3.37-0.22-5.03-0.66
		c-1.66-0.44-3.15-1.23-4.47-2.36c-1.32-1.13-2.39-2.67-3.22-4.62c-0.83-1.95-1.24-4.42-1.24-7.43v-28.52c0-0.27-0.14-0.4-0.41-0.4
		h-1.32c-0.81,0-1.31-0.05-1.5-0.15c-0.19-0.1-0.28-0.32-0.28-0.66c0-0.44,0.19-0.91,0.58-1.4c0.39-0.49,0.87-0.74,1.45-0.74h1.12
		c0.24,0,0.35-0.14,0.35-0.41v-12.13c0-0.74,0.31-1.17,0.91-1.27c0.85-0.17,1.75-0.4,2.71-0.68c0.97-0.29,1.95-0.63,2.94-1.02
		c1-0.39,1.98-0.81,2.94-1.27c0.96-0.46,1.85-0.94,2.66-1.45c0.37-0.2,0.72-0.24,1.04-0.1c0.32,0.14,0.48,0.48,0.48,1.01v16.95
		c0,0.24,0.14,0.36,0.41,0.36h9.54c0.81,0,1.31,0.05,1.5,0.15c0.18,0.1,0.28,0.32,0.28,0.66c0,0.44-0.24,0.9-0.71,1.4
		c-0.48,0.49-1,0.74-1.57,0.74h-9.08c-0.24,0-0.36,0.12-0.36,0.35v31.21c0,0.91,0.16,1.71,0.48,2.41c0.32,0.7,0.74,1.29,1.27,1.78
		c0.52,0.49,1.13,0.86,1.83,1.1c0.69,0.23,1.4,0.35,2.11,0.35c1.45,0,2.81-0.21,4.06-0.64
		C848.48,151.74,849.46,151.34,850.17,150.97z"/>
	<path class="st0" d="M873.41,150.36c0,1.35,0.27,2.44,0.81,3.28c0.54,0.83,1.16,1.47,1.85,1.93c0.7,0.46,1.37,0.78,2.03,0.96
		c0.66,0.19,1.12,0.3,1.4,0.33c0.27,0.06,0.47,0.18,0.58,0.33c0.12,0.15,0.16,0.31,0.13,0.49c-0.03,0.16-0.13,0.32-0.28,0.45
		c-0.15,0.14-0.36,0.2-0.63,0.2h-25.47c-0.27,0-0.48-0.06-0.64-0.2c-0.15-0.13-0.25-0.29-0.28-0.45c-0.03-0.17,0.01-0.33,0.13-0.49
		c0.12-0.15,0.31-0.26,0.58-0.33c0.27-0.04,0.74-0.14,1.4-0.33c0.66-0.18,1.34-0.5,2.03-0.96c0.69-0.45,1.31-1.1,1.85-1.93
		c0.54-0.83,0.81-1.92,0.81-3.28v-28.21c0-0.44-0.2-0.71-0.61-0.81c-0.07,0-0.31-0.05-0.74-0.15c-0.42-0.1-0.91-0.22-1.45-0.36
		c-0.54-0.14-1.04-0.25-1.5-0.36c-0.46-0.1-0.73-0.17-0.84-0.2c-0.44-0.1-0.67-0.33-0.68-0.69c-0.02-0.35,0.23-0.6,0.74-0.73
		c1.32-0.31,2.75-0.72,4.29-1.24c1.54-0.52,3.09-1.11,4.65-1.78c1.55-0.66,3.06-1.37,4.52-2.13c1.45-0.76,2.76-1.53,3.9-2.31
		c0.31-0.2,0.62-0.29,0.94-0.25c0.32,0.03,0.48,0.29,0.48,0.76V150.36z M873.82,93.23c-0.4-0.98-0.97-1.84-1.7-2.56
		c-0.73-0.73-1.59-1.3-2.59-1.73c-1-0.42-2.11-0.63-3.33-0.63c-1.18,0-2.3,0.22-3.35,0.66c-1.05,0.44-1.95,1.03-2.71,1.78
		c-0.76,0.74-1.36,1.62-1.8,2.61c-0.44,1-0.66,2.05-0.66,3.17c0,1.11,0.2,2.17,0.61,3.15c0.41,0.98,0.97,1.83,1.7,2.54
		c0.72,0.71,1.59,1.28,2.59,1.7c1,0.43,2.09,0.64,3.28,0.64c1.22,0,2.34-0.22,3.37-0.66c1.03-0.44,1.94-1.02,2.71-1.75
		c0.78-0.72,1.39-1.59,1.83-2.59c0.44-1,0.66-2.06,0.66-3.17C874.43,95.25,874.22,94.21,873.82,93.23z"/>
	<path class="st0" d="M965.46,156.86c0.27,0.06,0.47,0.18,0.58,0.33c0.12,0.15,0.16,0.31,0.13,0.49c-0.03,0.16-0.13,0.32-0.28,0.45
		c-0.15,0.14-0.36,0.2-0.63,0.2h-23.85c-0.27,0-0.48-0.06-0.63-0.2c-0.15-0.13-0.25-0.29-0.28-0.45c-0.03-0.17,0.01-0.33,0.13-0.49
		c0.12-0.15,0.31-0.26,0.58-0.33c0.27-0.04,0.69-0.13,1.27-0.28c0.57-0.15,1.16-0.43,1.75-0.84c0.59-0.4,1.11-1,1.57-1.78
		c0.46-0.77,0.69-1.84,0.69-3.19v-23.49c-0.03-1.35-0.15-2.71-0.36-4.08c-0.2-1.37-0.59-2.61-1.17-3.71
		c-0.57-1.1-1.38-1.99-2.41-2.69c-1.03-0.69-2.41-1.04-4.14-1.04c-1.49,0-2.7,0.25-3.63,0.76c-0.93,0.51-1.65,1.16-2.16,1.95
		c-0.51,0.8-0.86,1.68-1.07,2.66c-0.2,0.98-0.32,1.96-0.35,2.94v26.69c0,1.35,0.23,2.42,0.68,3.19c0.46,0.78,0.98,1.37,1.57,1.78
		c0.59,0.41,1.17,0.69,1.75,0.84c0.57,0.15,1,0.25,1.27,0.28c0.27,0.06,0.47,0.18,0.59,0.33c0.12,0.15,0.16,0.31,0.13,0.49
		c-0.03,0.16-0.13,0.32-0.28,0.45c-0.15,0.14-0.36,0.2-0.63,0.2h-23.85c-0.27,0-0.48-0.06-0.64-0.2c-0.15-0.13-0.25-0.29-0.28-0.45
		c-0.03-0.17,0.01-0.33,0.13-0.49c0.12-0.15,0.31-0.26,0.58-0.33c0.27-0.04,0.69-0.13,1.27-0.28c0.58-0.15,1.16-0.43,1.75-0.84
		c0.59-0.4,1.12-1,1.57-1.78c0.46-0.77,0.68-1.84,0.68-3.19v-23.54c-0.03-1.35-0.15-2.71-0.36-4.06c-0.2-1.35-0.59-2.58-1.17-3.68
		c-0.58-1.1-1.39-1.99-2.44-2.69c-1.05-0.69-2.42-1.04-4.11-1.04c-1.52,0-2.74,0.25-3.65,0.76c-0.91,0.51-1.63,1.16-2.16,1.95
		c-0.53,0.8-0.88,1.69-1.06,2.69c-0.19,1-0.3,1.99-0.33,2.97v26.64c0,1.35,0.23,2.42,0.68,3.19c0.46,0.78,0.98,1.37,1.57,1.78
		c0.59,0.41,1.17,0.69,1.75,0.84c0.57,0.15,1,0.25,1.27,0.28c0.27,0.06,0.46,0.18,0.58,0.33c0.12,0.15,0.16,0.31,0.13,0.49
		c-0.03,0.16-0.13,0.32-0.28,0.45c-0.15,0.14-0.37,0.2-0.64,0.2h-23.85c-0.27,0-0.48-0.06-0.63-0.2c-0.15-0.13-0.25-0.29-0.28-0.45
		c-0.03-0.17,0.01-0.33,0.13-0.49c0.12-0.15,0.31-0.26,0.59-0.33c0.27-0.04,0.69-0.13,1.27-0.28c0.58-0.15,1.16-0.43,1.75-0.84
		c0.59-0.4,1.12-1,1.57-1.78c0.46-0.77,0.68-1.84,0.68-3.19v-28.62c0-0.44-0.2-0.71-0.61-0.81c-0.07,0-0.31-0.05-0.74-0.15
		c-0.42-0.1-0.9-0.22-1.45-0.36c-0.54-0.14-1.04-0.25-1.5-0.36c-0.46-0.1-0.74-0.17-0.84-0.2c-0.44-0.1-0.67-0.33-0.69-0.69
		c-0.02-0.35,0.23-0.6,0.74-0.73c1.32-0.31,2.75-0.72,4.29-1.24c1.54-0.52,3.09-1.11,4.64-1.78c1.56-0.66,3.06-1.37,4.52-2.13
		c1.45-0.76,2.76-1.53,3.91-2.31c0.3-0.2,0.62-0.29,0.94-0.25c0.32,0.03,0.48,0.29,0.48,0.76v3.76c1.52-1.18,3.34-2.19,5.45-3.02
		c2.11-0.83,4.64-1.24,7.59-1.24c1.93,0,3.64,0.15,5.13,0.46c1.49,0.31,2.78,0.74,3.88,1.29c1.1,0.56,2.04,1.22,2.82,1.98
		c0.78,0.76,1.42,1.6,1.93,2.51c0.74-0.78,1.61-1.54,2.59-2.28c0.98-0.74,2.09-1.41,3.35-2c1.25-0.59,2.65-1.07,4.19-1.42
		c1.54-0.35,3.24-0.53,5.1-0.53c2.74,0,5.03,0.31,6.87,0.91c1.85,0.61,3.36,1.42,4.54,2.44c1.18,1.01,2.08,2.18,2.69,3.5
		c0.61,1.32,1.05,2.69,1.32,4.11c0.27,1.42,0.42,2.83,0.46,4.24c0.03,1.4,0.05,2.71,0.05,3.93v0.25v20c0,1.35,0.23,2.42,0.69,3.19
		c0.46,0.78,0.98,1.37,1.57,1.78c0.59,0.41,1.18,0.69,1.75,0.84C964.77,156.73,965.19,156.82,965.46,156.86z"/>
	<path class="st0" d="M1013.72,153.66c0.47-0.1,0.84-0.01,1.11,0.28c0.27,0.29,0.29,0.67,0.05,1.15c-0.2,0.37-0.53,0.81-0.99,1.32
		c-0.46,0.51-1.06,0.98-1.83,1.42c-0.76,0.44-1.69,0.81-2.79,1.11c-1.1,0.3-2.39,0.45-3.88,0.45c-2.06,0-3.8-0.41-5.2-1.24
		c-1.4-0.83-2.38-1.78-2.92-2.87c-0.14-0.27-0.33-0.39-0.58-0.36c-0.26,0.04-0.47,0.14-0.64,0.31c-0.1,0.1-0.41,0.38-0.94,0.84
		c-0.52,0.45-1.27,0.94-2.23,1.47c-0.96,0.53-2.12,1-3.47,1.42c-1.35,0.42-2.91,0.64-4.67,0.64c-3.01,0-5.54-0.43-7.59-1.27
		c-2.05-0.84-3.7-1.93-4.97-3.27c-1.27-1.34-2.18-2.85-2.74-4.52c-0.56-1.68-0.84-3.34-0.84-5c0-2.67,0.75-5.01,2.26-7
		c1.51-2,3.46-3.48,5.86-4.47c1.29-0.5,2.63-0.87,4.03-1.09c1.4-0.22,2.8-0.45,4.19-0.69c1.39-0.23,2.75-0.53,4.08-0.89
		c1.34-0.36,2.59-0.94,3.78-1.75c1.25-0.84,2.12-1.93,2.61-3.25c0.49-1.32,0.74-2.72,0.74-4.21c0-1.08-0.14-2.12-0.43-3.12
		c-0.29-1-0.7-1.87-1.22-2.61c-0.53-0.75-1.13-1.34-1.83-1.78c-0.69-0.44-1.45-0.66-2.26-0.66c-1.46,0-2.52,0.37-3.2,1.12
		c-0.68,0.74-1.21,1.64-1.6,2.69c-0.39,1.05-0.75,2.14-1.09,3.27c-0.34,1.13-0.88,2.11-1.62,2.92c-0.61,0.65-1.4,1.13-2.36,1.45
		c-0.96,0.32-1.89,0.48-2.76,0.48c-0.91,0-1.73-0.15-2.44-0.46c-0.71-0.31-1.32-0.72-1.83-1.24c-0.51-0.53-0.89-1.13-1.14-1.83
		c-0.26-0.69-0.38-1.43-0.38-2.21c0-1.05,0.25-2.1,0.76-3.15c0.51-1.05,1.41-2,2.71-2.84c1.3-0.85,3.05-1.53,5.25-2.06
		c2.2-0.52,4.99-0.79,8.37-0.79c3.75,0,6.96,0.38,9.61,1.14c2.66,0.76,4.82,1.87,6.5,3.32c1.68,1.45,2.89,3.26,3.65,5.4
		c0.76,2.15,1.14,4.59,1.14,7.33c0,3.28-0.1,6.36-0.31,9.23c-0.2,2.88-0.35,5.42-0.43,7.64c-0.09,2.22-0.04,4.04,0.13,5.48
		c0.17,1.44,0.64,2.32,1.42,2.66c0.34,0.17,0.76,0.25,1.27,0.23C1012.6,153.82,1013.14,153.76,1013.72,153.66z M996.11,130.98
		c0-0.2-0.08-0.34-0.25-0.41c-0.17-0.07-0.32-0.02-0.46,0.15c-0.27,0.31-0.52,0.59-0.74,0.86c-0.22,0.27-0.52,0.59-0.89,0.96
		c-0.64,0.68-1.3,1.32-1.98,1.91c-0.68,0.59-1.35,1.19-2.03,1.8c-0.68,0.54-1.34,1.08-2,1.62c-0.66,0.54-1.28,1.13-1.85,1.78
		c-0.88,1.02-1.53,2.13-1.96,3.33c-0.42,1.2-0.63,2.48-0.63,3.83c0,0.91,0.14,1.84,0.41,2.76c0.27,0.93,0.68,1.76,1.24,2.49
		c0.56,0.73,1.27,1.32,2.13,1.78c0.86,0.46,1.91,0.69,3.12,0.69c1.22,0,2.21-0.25,2.97-0.76c0.76-0.5,1.35-1.11,1.78-1.83
		c0.42-0.71,0.72-1.43,0.89-2.15c0.17-0.73,0.25-1.3,0.25-1.7V130.98z"/>
	<text transform="matrix(1.3564 0 0 1 459.3081 194.8994)" class="st0 st1 st2">Librería escolar y papelería</text>
</g>
</svg>
